<?xml version="1.0" encoding="UTF-8"?>
<svg width="384px" height="381px" viewBox="0 0 384 381" version="1.1" xmlns="http://www.w3.org/2000/svg" xmlns:xlink="http://www.w3.org/1999/xlink">
    <!-- Generator: Sketch 46.2 (44496) - http://www.bohemiancoding.com/sketch -->
    <title>logo</title>
    <desc>Created with Sketch.</desc>
    <defs>
        <path d="M216.884989,72.1181172 L325.335527,154.424329 C350.141881,173.25058 350.136361,203.778153 325.335527,222.600215 L216.884989,304.906427 C192.078635,323.732678 151.854067,323.728488 127.053234,304.906427 L18.6026956,222.600215 C-6.20365869,203.773964 -6.19813822,173.24639 18.6026956,154.424329 L127.053234,72.1181172 C151.859588,53.2918662 192.084155,53.2960558 216.884989,72.1181172 Z" id="path-1"></path>
        <filter x="-11.6%" y="-7.7%" width="123.3%" height="130.6%" filterUnits="objectBoundingBox" id="filter-2">
            <feOffset dx="0" dy="20" in="SourceAlpha" result="shadowOffsetOuter1"></feOffset>
            <feGaussianBlur stdDeviation="10" in="shadowOffsetOuter1" result="shadowBlurOuter1"></feGaussianBlur>
            <feColorMatrix values="0 0 0 0 0   0 0 0 0 0   0 0 0 0 0  0 0 0 0.15 0" type="matrix" in="shadowBlurOuter1"></feColorMatrix>
        </filter>
        <path d="M216.884989,14.1181172 L325.335527,96.424329 C350.141881,115.25058 350.136361,145.778153 325.335527,164.600215 L216.884989,246.906427 C192.078635,265.732678 151.854067,265.728488 127.053234,246.906427 L18.6026956,164.600215 C-6.20365869,145.773964 -6.19813822,115.24639 18.6026956,96.424329 L127.053234,14.1181172 C151.859588,-4.70813383 192.084155,-4.70394418 216.884989,14.1181172 Z" id="path-3"></path>
        <filter x="-11.6%" y="-7.7%" width="123.3%" height="130.6%" filterUnits="objectBoundingBox" id="filter-4">
            <feOffset dx="0" dy="20" in="SourceAlpha" result="shadowOffsetOuter1"></feOffset>
            <feGaussianBlur stdDeviation="10" in="shadowOffsetOuter1" result="shadowBlurOuter1"></feGaussianBlur>
            <feColorMatrix values="0 0 0 0 0   0 0 0 0 0   0 0 0 0 0  0 0 0 0.151466259 0" type="matrix" in="shadowBlurOuter1"></feColorMatrix>
        </filter>
    </defs>
    <g id="Page-1" stroke="none" stroke-width="1" fill="none" fill-rule="evenodd">
        <g id="pentry" transform="translate(-64.000000, -66.000000)">
            <g id="logo" transform="translate(84.000000, 66.000000)">
                <path d="M216.884989,133.118117 L325.335527,215.424329 C350.141881,234.25058 350.136361,264.778153 325.335527,283.600215 L216.884989,365.906427 C192.078635,384.732678 151.854067,384.728488 127.053234,365.906427 L18.6026956,283.600215 C-6.20365869,264.773964 -6.19813822,234.24639 18.6026956,215.424329 L127.053234,133.118117 C151.859588,114.291866 192.084155,114.296056 216.884989,133.118117 Z" id="Rectangle-1-Copy-2" fill="#4D18B6"></path>
                <g id="Rectangle-1-Copy">
                    <use fill="black" fill-opacity="1" filter="url(#filter-2)" xlink:href="#path-1"></use>
                    <use fill="#5E2AC8" fill-rule="evenodd" xlink:href="#path-1"></use>
                </g>
                <g id="Rectangle-1">
                    <use fill="black" fill-opacity="1" filter="url(#filter-4)" xlink:href="#path-3"></use>
                    <use fill="#7A39E7" fill-rule="evenodd" xlink:href="#path-3"></use>
                </g>
                <g id="speaker-filled-audio-tool" transform="translate(114.000000, 84.000000)" fill-rule="nonzero" fill="#FFFFFF">
                    <path d="M57.7328259,82.5068278 C57.7328259,84.5397 56.55825,86.3865253 54.7201069,87.2485425 C54.0094078,87.5846672 53.2478559,87.7471481 52.4912653,87.7471481 C51.2931234,87.7471481 50.1061444,87.3353644 49.1473828,86.5403241 L20.4986447,62.8007428 L5.24032031,62.8007428 C2.34667125,62.8032234 0,60.4553119 0,57.5616628 L0,36.6834825 C0,33.7885931 2.34667125,31.4419219 5.24032031,31.4419219 L20.499885,31.4419219 L49.1486231,7.70234063 C50.7138975,6.40497375 52.8844444,6.12838406 54.7213472,6.99660281 C56.55825,7.85862 57.7340663,9.70668563 57.7340663,11.7383175 L57.7328259,82.5068278 L57.7328259,82.5068278 Z M77.87178,74.3182847 C77.7440278,74.3269669 77.6212369,74.3319281 77.494725,74.3319281 C76.1105363,74.3319281 74.77596,73.7849503 73.7899116,72.7976616 L73.089135,72.0944044 C71.2509919,70.2599822 71.0351775,67.35393 72.5830875,65.2677244 C76.5074363,59.9765513 78.5787581,53.7042909 78.5787581,47.1244331 C78.5787581,40.04721 76.2271256,33.4090575 71.7768844,27.9268763 C70.0826175,25.8431513 70.2388969,22.8167888 72.1378153,20.9191106 L72.8373516,20.2183341 C73.8841753,19.1715103 75.2869688,18.6009666 76.8051113,18.6915094 C78.2835638,18.7659281 79.6640316,19.4617434 80.6017078,20.6077922 C86.7747431,28.1612953 90.0355247,37.3321659 90.0355247,47.1256734 C90.0355247,56.2469316 87.1517981,64.9291191 81.6944231,72.2295984 C80.7827934,73.446345 79.3886822,74.2103775 77.87178,74.3182847 Z M99.5375588,90.513045 C98.58996,91.6330472 97.2194147,92.3052966 95.752125,92.3673122 C95.6801869,92.3697928 95.6070084,92.3722734 95.5325897,92.3722734 C94.14468,92.3722734 92.8125844,91.8240553 91.8265359,90.8380069 L91.1381625,90.1496334 C89.2144378,88.2271491 89.084205,85.1524144 90.8330456,83.07117 C99.284535,73.0196775 103.940668,60.2543813 103.940668,47.1244331 C103.940668,33.4673522 98.9558522,20.3200397 89.9077725,10.1048259 C88.0733503,8.03102344 88.1663738,4.8917925 90.1186256,2.93209875 L90.8057588,2.24372531 C91.8252956,1.21922719 93.1499494,0.654885 94.6693322,0.703257188 C96.1118156,0.7441875 97.4761594,1.38170813 98.4349209,2.46078 C109.371997,14.7746025 115.396194,30.6381994 115.396194,47.1244331 C115.398675,62.9867897 109.766416,78.3964322 99.5375588,90.513045 Z" id="Shape"></path>
                </g>
            </g>
        </g>
    </g>
</svg>